# xmcd
#
# Track frame offsets: 
#        150
#        16434
#        32432
#        48373
#        65244
#        80388
#        99186
#        115590
#        131880
#        147675
#        168250
#        189154
#        205880
#        224076
#
# Disc length: 3225 seconds
#
# Revision: 1
# Processed by: cddbd v1.5.2PL0 Copyright (c) Steve Scherf et al.
# Submitted via: ExactAudioCopy v0.99pb5
#
DISCID=c80c970e
DTITLE=Blue - Guilty
DYEAR=2003
DGENRE=Pop
TTITLE0=Stand Up
TTITLE1=Signed.Sealed.Delivered I'm Yours
TTITLE2=Taste It
TTITLE3=Guilty
TTITLE4=Rock The Night
TTITLE5=When Summer's Gone
TTITLE6=Alive
TTITLE7=I Wanna Know
TTITLE8=Back It Up
TTITLE9=Breathe Easy
TTITLE10=Walk Away
TTITLE11=Where You Want Me
TTITLE12=How's A Man Supposed To Change
TTITLE13=No Goodbyes
EXTD=
EXTT0=
EXTT1=
EXTT2=
EXTT3=
EXTT4=
EXTT5=
EXTT6=
EXTT7=
EXTT8=
EXTT9=
EXTT10=
EXTT11=
EXTT12=
EXTT13=
PLAYORDER=
